<?xml version="1.0" standalone="no"?>
<!DOCTYPE svg PUBLIC "-//W3C//DTD SVG 20010904//EN"
 "http://www.w3.org/TR/2001/REC-SVG-20010904/DTD/svg10.dtd">
<svg version="1.0" xmlns="http://www.w3.org/2000/svg"
 width="790.000000pt" height="214.000000pt" viewBox="0 0 790.000000 214.000000"
 preserveAspectRatio="xMidYMid meet">

<g transform="translate(0.000000,214.000000) scale(0.100000,-0.100000)"
fill="#000000" stroke="none">
<path d="M1540 1135 l0 -665 60 0 60 0 0 228 c0 351 16 435 97 516 58 58 115
80 215 84 106 5 168 -13 220 -63 78 -76 88 -132 88 -492 l0 -273 60 0 60 0 0
313 c0 171 -5 331 -10 355 -35 152 -142 248 -304 273 -133 21 -288 -25 -372
-109 -23 -23 -44 -42 -48 -42 -3 0 -6 122 -6 270 l0 270 -60 0 -60 0 0 -665z"/>
<path d="M5133 1788 c-99 -26 -76 -168 27 -168 55 0 90 34 90 88 0 62 -51 97
-117 80z"/>
<path d="M6590 1135 l0 -665 65 0 65 0 0 136 0 136 73 67 c39 37 89 82 109
100 l37 32 168 -208 c92 -115 178 -221 190 -236 21 -27 25 -28 97 -25 l75 3
-211 265 c-115 146 -212 270 -215 277 -4 11 113 129 337 341 l55 52 -80 -1
-80 0 -275 -253 -275 -252 -5 445 -5 446 -62 3 -63 3 0 -666z"/>
<path d="M685 1719 c-119 -24 -223 -98 -273 -193 -24 -45 -27 -62 -27 -141 1
-103 17 -145 82 -206 58 -56 126 -85 328 -139 205 -55 267 -82 313 -134 55
-63 53 -167 -5 -236 -110 -132 -438 -129 -638 5 l-65 43 -26 -44 -27 -45 24
-25 c31 -33 167 -99 244 -119 88 -23 231 -30 322 -15 150 24 259 94 310 198
22 47 27 71 27 137 1 70 -3 87 -29 133 -54 100 -125 138 -380 207 -294 79
-355 122 -355 249 0 59 11 86 55 135 98 108 345 120 542 27 l73 -35 20 39 c11
22 20 45 20 53 0 18 -78 60 -165 87 -81 26 -286 36 -370 19z"/>
<path d="M3065 1410 c-150 -27 -253 -97 -329 -223 -128 -214 -61 -516 145
-648 80 -51 153 -71 264 -72 83 0 112 4 172 25 216 77 329 274 300 522 -20
174 -132 315 -295 371 -78 27 -186 38 -257 25z m225 -133 c197 -73 273 -361
145 -555 -66 -98 -164 -147 -296 -145 -135 1 -241 69 -301 191 -31 62 -33 73
-33 172 0 95 3 111 29 167 78 170 266 240 456 170z"/>
<path d="M4287 1410 c-77 -13 -172 -64 -227 -120 l-50 -51 0 85 0 86 -60 0
-60 0 0 -645 0 -645 60 0 60 0 0 261 0 262 52 -53 c211 -214 599 -144 728 132
50 108 60 248 25 371 -47 164 -191 289 -365 316 -73 12 -94 12 -163 1z m133
-111 c119 -19 206 -86 259 -198 23 -49 26 -68 26 -161 0 -93 -3 -112 -26 -161
-52 -110 -138 -177 -256 -198 -162 -30 -311 47 -382 198 -23 49 -26 68 -26
161 0 93 3 112 26 161 51 108 141 180 250 198 30 5 56 9 59 10 3 0 34 -4 70
-10z"/>
<path d="M5876 1409 c-110 -16 -236 -91 -300 -177 -104 -142 -121 -341 -42
-508 107 -227 403 -326 643 -214 57 26 153 108 153 130 0 5 -20 23 -44 39
l-43 30 -37 -38 c-127 -130 -359 -128 -491 4 -82 82 -119 209 -97 336 15 86
41 138 95 193 133 133 370 134 496 2 l34 -35 43 30 c24 16 44 34 44 39 0 4
-20 29 -45 55 -55 56 -146 100 -235 114 -73 12 -91 12 -174 0z"/>
<path d="M5100 940 l0 -470 60 0 60 0 0 470 0 470 -60 0 -60 0 0 -470z"/>
</g>
</svg>
